<svg width="315.04" height="219.55999" xmlns="http://www.w3.org/2000/svg" viewBox="92.48 -34.77999 315.04 219.55999" style="background:0% 0%" preserveAspectRatio="xMidYMid"><defs><linearGradient id="editing-sticker-gradient" x1=".78191" y1=".39739" x2=".21809" y2=".60261"><stop offset="0"/><stop offset="1"/></linearGradient><filter id="editing-sticker" x="-100%" y="-100%" width="300%" height="300%"><feMorphology radius="1" in="SourceAlpha" result="alpha-erode"/><feConvolveMatrix order="3,3" divisor="1" kernelMatrix="0 1 0 1 1 1 0 1 0" in="alpha-erode" result="alpha-round"/><feMorphology operator="dilate" radius="3.5" in="alpha-round" result="dilate-shadow"/><feGaussianBlur in="dilate-shadow" stdDeviation="1.5" result="shadow"/><feFlood flood-color="#fff" result="flood-sticker"/><feComposite operator="in" in="flood-sticker" in2="alpha-round" result="comp-sticker"/><feMorphology operator="dilate" radius="3" in="comp-sticker" result="morph-sticker"/><feConvolveMatrix order="3,3" divisor="1" kernelMatrix="0 1 0 1 1 1 0 1 0" in="morph-sticker" result="sticker"/><feMerge><feMergeNode in="shadow"/><feMergeNode in="sticker"/><feMergeNode in="SourceGraphic"/></feMerge></filter></defs><g filter="url(#editing-sticker)"><path d="M23.16-18.84L19.67-20h0q-3.65-1.25-6.64-2.53h0q-2.99-1.29-5.14-3.12h0Q5.73-27.47 4.52-30h0q-1.2-2.54-1.2-6.19h0q0-7.05 5.44-11.29h0q5.43-4.23 15.23-4.23h0q3.57 0 6.64.5h0q3.07.5 5.27 1.53h0q2.2 1.04 3.44 2.66h0q1.25 1.62 1.25 3.78h0q0 2.15-1 3.69h0q-1 1.54-2.41 2.61h0q-1.82-1.16-4.89-2.03h0q-3.07-.87-6.73-.87h0q-3.73 0-5.47 1.04h0q-1.75 1.03-1.75 2.61h0q0 1.25 1.08 2.04h0q1.08.78 3.24 1.45h0l4.4 1.41h0q7.8 2.49 11.99 6.35h0q4.19 3.86 4.19 10.5h0q0 7.05-5.56 11.41h0q-5.56 4.36-16.35 4.36h0q-3.82 0-7.1-.62h0Q10.96.08 8.51-1.12h0q-2.45-1.2-3.82-2.99h0Q3.32-5.89 3.32-8.22h0q0-2.4 1.41-4.11h0q1.41-1.7 3.07-2.61h0q2.33 1.83 5.69 3.15h0q3.36 1.33 7.34 1.33h0q4.07 0 5.73-1.24h0q1.66-1.25 1.66-2.91h0q0-1.66-1.33-2.53h0q-1.33-.87-3.73-1.7h0zm42.41-8.14h4.4q3.49 0 5.35-1.61h0q1.87-1.62 1.87-4.94h0q0-3.16-1.95-4.86h0q-1.95-1.7-5.69-1.7h0q-1.32 0-2.2.04h0q-.87.04-1.78.21h0v12.86zm.08 11.38V-.33h0q-.91.25-2.86.5h0q-1.95.25-3.86.25h0q-1.91 0-3.36-.3h0q-1.45-.29-2.45-1.03h0q-1-.75-1.49-2.08h0q-.5-1.33-.5-3.48h0v-39.1h0q0-1.74.95-2.69h0q.96-.96 2.62-1.54h0q2.82-1 6.43-1.45h0q3.61-.46 7.26-.46h0q11.46 0 17.52 4.9h0q6.05 4.9 6.05 13.28h0q0 4.07-1.28 7.34h0q-1.29 3.28-3.82 5.65h0q-2.53 2.36-6.39 3.65h0q-3.86 1.29-8.92 1.29h0-5.9zm44.16-23.08H97.36h0q-.58-.91-1.08-2.49h0q-.5-1.58-.5-3.32h0q0-3.24 1.45-4.65h0q1.46-1.41 3.78-1.41h36.19q.58.92 1.08 2.49h0q.5 1.58.5 3.32h0q0 3.24-1.46 4.65h0q-1.45 1.41-3.77 1.41h0-9.22V-.33h0q-.91.25-2.86.5h0q-1.95.25-3.86.25h0q-1.91 0-3.36-.3h0q-1.45-.29-2.45-1.03h0q-1-.75-1.49-2.08h0q-.5-1.33-.5-3.48h0v-32.21zm50.55-5.48V-.33h0q-.92.25-2.87.5h0q-1.95.25-3.86.25h0q-1.91 0-3.36-.3h0q-1.45-.29-2.45-1.03h0q-.99-.75-1.49-2.08h0q-.5-1.33-.5-3.48h0V-50.3h0q.91-.16 2.91-.45h0q1.99-.3 3.81-.3h0q1.91 0 3.37.3h0q1.45.29 2.44 1.03h0q1 .75 1.5 2.08h0q.5 1.33.5 3.48h0zm36.43 3.99h0q-6.39 0-9.79 3.9h0q-3.4 3.9-3.4 11.04h0q0 7.22 3.77 11.12h0q3.78 3.9 10.17 3.9h0q3.4 0 5.77-.91h0q2.36-.92 4.52-2.08h0q1.41 1.16 2.2 2.78h0q.79 1.62.79 3.78h0q0 3.4-3.78 5.77h0q-3.77 2.36-11.49 2.36h0q-5.56 0-10.46-1.57h0q-4.9-1.58-8.55-4.86h0q-3.65-3.28-5.77-8.3h0q-2.11-5.02-2.11-11.99h0q0-6.48 2.03-11.41h0q2.03-4.94 5.56-8.35h0q3.53-3.4 8.26-5.14h0q4.73-1.75 10.12-1.75h0q7.64 0 11.83 2.49h0q4.19 2.49 4.19 6.4h0q0 2.15-1.07 3.73h0q-1.08 1.58-2.49 2.49h0q-2.16-1.41-4.61-2.41h0q-2.45-.99-5.69-.99z" fill="url(#editing-sticker-gradient)" stroke="#000" stroke-width="2" transform="translate(142.92969 101.6836)"/></g><style/></svg>